<svg id="Layer_1" data-name="Layer 1" xmlns="http://www.w3.org/2000/svg" viewBox="0 0 446.78 90.88"><defs><style>.cls-1{fill:#034ea2;}.cls-2{fill:#ed0677;}.cls-3{fill:#00c0f3;}.cls-4{fill:none;stroke:#010101;stroke-miterlimit:10;}.cls-5{isolation:isolate;}.cls-6{fill:#231f20;}</style></defs><rect class="cls-1" x="22.12" y="50.09" width="12.43" height="24.29"/><rect class="cls-1" y="19.38" width="12.43" height="54.99"/><path class="cls-1" d="M148.56,67.38a17.35,17.35,0,0,0-3.4-5.45,14.47,14.47,0,0,0-5-3.51,14.83,14.83,0,0,0-5.89-1.22,15.46,15.46,0,0,0-5.94,1.17,14.48,14.48,0,0,0-4.92,3.41,16,16,0,0,0-3.35,5.45,20.47,20.47,0,0,0-1.22,7.28,19.91,19.91,0,0,0,1.22,7.18,16,16,0,0,0,3.35,5.45,15.05,15.05,0,0,0,4.92,3.46,14.9,14.9,0,0,0,16.81-3.51,17.54,17.54,0,0,0,3.4-5.45,20.65,20.65,0,0,0,0-14.26m1.07,34v-9a27.82,27.82,0,0,1-7.37,7.13,19.23,19.23,0,0,1-10.92,3,24.18,24.18,0,0,1-9.25-1.83,22.94,22.94,0,0,1-7.93-5.45,28.19,28.19,0,0,1-5.59-8.81,31.18,31.18,0,0,1-2.13-11.92,32,32,0,0,1,2.08-11.92,27.22,27.22,0,0,1,5.54-8.81,22.67,22.67,0,0,1,8-5.45,24.55,24.55,0,0,1,9.3-1.84,19.68,19.68,0,0,1,11,2.85A30.17,30.17,0,0,1,149.63,56V27h12.43v74.36H149.63Z" transform="translate(-22.47 -27.03)"/><path class="cls-1" d="M207.64,70.74a20.85,20.85,0,0,0-1.32-5.55,14.36,14.36,0,0,0-2.75-4.48,13.09,13.09,0,0,0-4.13-3A12.82,12.82,0,0,0,194,56.58a12.44,12.44,0,0,0-9.42,3.92A17.68,17.68,0,0,0,180,70.74ZM185.43,89a15.3,15.3,0,0,0,10.19,3.51,18.05,18.05,0,0,0,7.95-1.63,25.52,25.52,0,0,0,6.62-4.79l7.23,6.42a29.73,29.73,0,0,1-9.22,7.33,27.67,27.67,0,0,1-12.78,2.75,28.66,28.66,0,0,1-10.85-2A26,26,0,0,1,170,86.06a29.69,29.69,0,0,1-2.14-11.46,30.24,30.24,0,0,1,1.94-10.9,27.4,27.4,0,0,1,5.45-8.91,26.19,26.19,0,0,1,8.3-6.06,24.72,24.72,0,0,1,10.59-2.24,25.52,25.52,0,0,1,11.25,2.34,23.21,23.21,0,0,1,8,6.32,27.48,27.48,0,0,1,4.84,9.27,37.42,37.42,0,0,1,1.63,11.11c0,.54,0,1.09-.05,1.63s-.09,1.12-.15,1.73H180.14q1.11,6.61,5.3,10.14" transform="translate(-22.47 -27.03)"/><path class="cls-1" d="M268,65.74a14.12,14.12,0,0,0-3.41-4.7,15.37,15.37,0,0,0-5-3A17.5,17.5,0,0,0,253.48,57a16.82,16.82,0,0,0-6,1.07,15.17,15.17,0,0,0-4.84,3,13.43,13.43,0,0,0-3.26,4.65,15.25,15.25,0,0,0-1.17,6.07,14.76,14.76,0,0,0,1.22,6.07,15,15,0,0,0,3.26,4.71,13.94,13.94,0,0,0,4.84,3,16.62,16.62,0,0,0,6,1.06,17.41,17.41,0,0,0,6.06-1.06A14.77,14.77,0,0,0,268,77.89a13.84,13.84,0,0,0,1.27-6A14.51,14.51,0,0,0,268,65.75m5.86,45.54q-7.55,6.61-21.39,6.62a44.8,44.8,0,0,1-24-6.42l4.58-9.27a40.7,40.7,0,0,0,9,4.17,32.64,32.64,0,0,0,10.19,1.53q8.25,0,12.63-4.19t4.38-12.38v-4.2a29,29,0,0,1-7.85,7.2,20.73,20.73,0,0,1-11.1,2.78,25.31,25.31,0,0,1-9.16-1.68,23.2,23.2,0,0,1-7.79-4.94,24.18,24.18,0,0,1-5.45-8,26.56,26.56,0,0,1-2-10.7,26.51,26.51,0,0,1,2-10.69,24.39,24.39,0,0,1,5.45-8,23.72,23.72,0,0,1,7.84-5,24.91,24.91,0,0,1,9.12-1.73,21.17,21.17,0,0,1,11.26,2.73,30.55,30.55,0,0,1,7.59,6.53V47.62h12.32V90.4q0,14.26-7.54,20.88" transform="translate(-22.47 -27.03)"/><path class="cls-1" d="M327,70.74a20.85,20.85,0,0,0-1.32-5.55,14.36,14.36,0,0,0-2.75-4.48,13.09,13.09,0,0,0-4.13-3,12.82,12.82,0,0,0-5.45-1.12,12.44,12.44,0,0,0-9.42,3.92,17.68,17.68,0,0,0-4.53,10.24ZM304.76,89A15.3,15.3,0,0,0,315,92.53a18.05,18.05,0,0,0,7.95-1.63,25.52,25.52,0,0,0,6.62-4.79l7.23,6.42a29.73,29.73,0,0,1-9.22,7.33,27.67,27.67,0,0,1-12.78,2.75,28.66,28.66,0,0,1-10.85-2,26,26,0,0,1-14.62-14.51,29.69,29.69,0,0,1-2.14-11.46,30.24,30.24,0,0,1,1.94-10.9,27.4,27.4,0,0,1,5.45-8.91,26.19,26.19,0,0,1,8.3-6.06,24.72,24.72,0,0,1,10.59-2.24,25.52,25.52,0,0,1,11.25,2.34,23.21,23.21,0,0,1,8.05,6.32,27.48,27.48,0,0,1,4.84,9.27,37.42,37.42,0,0,1,1.63,11.11c0,.54,0,1.09-.05,1.63s-.09,1.12-.15,1.73H299.47q1.11,6.61,5.3,10.14" transform="translate(-22.47 -27.03)"/><path class="cls-1" d="M357.37,101.4H344.94V47.62h12.43v8.44a31.32,31.32,0,0,1,2.89-3.65,18.95,18.95,0,0,1,8.23-5.14,19.18,19.18,0,0,1,5.64-.77q9.14,0,14.12,5.6t5,15.08v34.23H380.8V70.93q0-6.3-3-9.71t-8.43-3.4a11.32,11.32,0,0,0-8.68,3.51q-3.33,3.51-3.33,9.8v30.28Z" transform="translate(-22.47 -27.03)"/><path class="cls-1" d="M438.3,70.74A20.85,20.85,0,0,0,437,65.19a14.36,14.36,0,0,0-2.75-4.48,13.09,13.09,0,0,0-4.13-3,12.82,12.82,0,0,0-5.45-1.12,12.44,12.44,0,0,0-9.42,3.92,17.68,17.68,0,0,0-4.53,10.24ZM416.09,89a15.3,15.3,0,0,0,10.19,3.51,18.05,18.05,0,0,0,8-1.63,25.52,25.52,0,0,0,6.62-4.79l7.23,6.42a29.73,29.73,0,0,1-9.22,7.33,27.67,27.67,0,0,1-12.78,2.75,28.66,28.66,0,0,1-10.85-2,26,26,0,0,1-14.62-14.51,29.69,29.69,0,0,1-2.14-11.46,30.24,30.24,0,0,1,1.94-10.9,27.4,27.4,0,0,1,5.45-8.91,26.19,26.19,0,0,1,8.3-6.06,24.72,24.72,0,0,1,10.59-2.24A25.52,25.52,0,0,1,436,48.83a23.21,23.21,0,0,1,8.05,6.32,27.48,27.48,0,0,1,4.84,9.27,37.42,37.42,0,0,1,1.63,11.11c0,.54,0,1.09,0,1.63s-.09,1.12-.15,1.73H410.8q1.13,6.61,5.3,10.14" transform="translate(-22.47 -27.03)"/><rect class="cls-2" x="64.84" y="31.65" width="12.43" height="42.73"/><rect class="cls-1" x="64.84" y="19.22" width="12.43" height="12.42"/><rect class="cls-3" x="22.12" y="37.66" width="24.07" height="12.42"/><rect class="cls-3" x="22.12" y="19.22" width="42.72" height="12.42"/><rect class="cls-2" x="46.19" y="50.09" width="12.43" height="24.29"/><rect class="cls-1" x="46.19" y="37.66" width="12.43" height="12.42"/><rect class="cls-2" x="0.02" y="1" width="12.38" height="12.38"/><path class="cls-4" d="M461.61,57.55a7.15,7.15,0,1,1,7.14-7.15A7.15,7.15,0,0,1,461.61,57.55Z" transform="translate(-22.47 -27.03)"/><g class="cls-5"><g class="cls-5"><path class="cls-6" d="M465,54h-1.25l-1.32-2.49a1.32,1.32,0,0,0-.52-.55,1.67,1.67,0,0,0-.8-.16h-1.28V54h-1.12V46.25H462a3,3,0,0,1,2,.58,2.06,2.06,0,0,1,.67,1.67,2.11,2.11,0,0,1-.5,1.46,2.37,2.37,0,0,1-1.42.73,1.62,1.62,0,0,1,.94.86Zm-3.12-4.11a2,2,0,0,0,1.27-.34,1.53,1.53,0,0,0,0-2.07,2.11,2.11,0,0,0-1.28-.32h-2.06V49.9Z" transform="translate(-22.47 -27.03)"/></g></g></svg>